<svg width="20" height="19" viewBox="0 0 20 19" fill="none" xmlns="http://www.w3.org/2000/svg">
<g clip-path="url(#clip0_1_37)">
<path d="M14.5204 6.47338C14.5204 5.25339 14.0358 4.08336 13.1731 3.22069C12.3104 2.35802 11.1404 1.87338 9.92039 1.87338C8.70039 1.87338 7.53036 2.35802 6.6677 3.22069C5.80503 4.08336 5.32039 5.25339 5.32039 6.47338C5.32039 11.8401 3.02039 13.3734 3.02039 13.3734H16.8204C16.8204 13.3734 14.5204 11.8401 14.5204 6.47338Z" stroke="white" stroke-width="2.2439" stroke-linecap="round" stroke-linejoin="round"/>
<path d="M11.2466 16.4399C11.1119 16.6723 10.9184 16.8651 10.6856 16.9992C10.4528 17.1333 10.1889 17.2039 9.92031 17.2039C9.65169 17.2039 9.38778 17.1333 9.15501 16.9992C8.92223 16.8651 8.72877 16.6723 8.59398 16.4399" stroke="white" stroke-width="2.2439" stroke-linecap="round" stroke-linejoin="round"/>
</g>
<defs>
<clipPath id="clip0_1_37">
<rect width="18.4" height="18.4" fill="white" transform="translate(0.720367 0.339935)"/>
</clipPath>
</defs>
</svg>
