<svg width="33" height="33" viewBox="0 0 33 33" fill="none" xmlns="http://www.w3.org/2000/svg">
<path d="M9.625 30.25H5.5C4.77065 30.25 4.07118 29.9603 3.55546 29.4445C3.03973 28.9288 2.75 28.2293 2.75 27.5V17.875C2.75 17.1457 3.03973 16.4462 3.55546 15.9305C4.07118 15.4147 4.77065 15.125 5.5 15.125H9.625M19.25 12.375V6.875C19.25 5.78098 18.8154 4.73177 18.0418 3.95818C17.2682 3.1846 16.219 2.75 15.125 2.75L9.625 15.125V30.25H25.135C25.7982 30.2575 26.4418 30.0251 26.9471 29.5955C27.4525 29.166 27.7856 28.5682 27.885 27.9125L29.7825 15.5375C29.8423 15.1434 29.8157 14.7409 29.7046 14.3581C29.5934 13.9753 29.4004 13.6212 29.1388 13.3203C28.8772 13.0195 28.5534 12.7792 28.1897 12.6159C27.826 12.4527 27.4311 12.3705 27.0325 12.375H19.25Z" stroke="#F0F0F0" stroke-width="2.5" stroke-linecap="round" stroke-linejoin="round"/>
</svg>
